<?xml version="1.0" encoding="UTF-8"?>
<svg id="Layer_2" data-name="Layer 2" xmlns="http://www.w3.org/2000/svg" viewBox="0 0 391.64 91.63">
  <path d="M0,51.07c0-13.52,3.22-23.68,9.65-30.48,6.43-6.8,14.93-10.19,25.49-10.19s18.98,3.38,25.49,10.14c6.51,6.76,9.76,17.23,9.76,31.4,0,12.8-3.22,22.61-9.65,29.45-6.44,6.83-14.97,10.25-25.6,10.25s-18.87-3.42-25.38-10.25S0,64.44,0,51.07ZM26.25,25.47c-1.01,4.92-1.52,13.45-1.52,25.6,0,3.76.04,6.8.11,9.11.07,2.31.14,4.48.22,6.51,0,3.47.31,6.45.92,8.95.61,2.5,1.46,4.54,2.55,6.13,1.52,2.32,3.72,3.47,6.62,3.47,5.21,0,8.39-3.83,9.54-11.5.65-4.56.98-12.11.98-22.67,0-2.53-.02-5.1-.05-7.7-.04-2.6-.09-5.24-.16-7.92,0-3.4-.31-6.35-.92-8.84-.62-2.49-1.46-4.57-2.55-6.24-1.52-2.39-3.8-3.58-6.83-3.58-4.63,0-7.59,2.89-8.89,8.68Z" fill="#000" stroke-width="0"/>
  <path d="M140.56,11.91v50.98c0,5.35-.43,9.6-1.3,12.74-.87,3.15-2.46,5.88-4.77,8.19-4.99,5.21-12.62,7.81-22.88,7.81s-18.11-2.28-23.97-6.83c-2.6-2.17-4.47-4.84-5.59-8.03-1.12-3.18-1.68-7.81-1.68-13.88V11.91h23.32v51.19c0,4.99.12,8.24.38,9.76.25,1.52.99,3.15,2.22,4.88,2.39,3.69,6.25,5.53,11.6,5.53s9.65-2.1,12.26-6.29c1.59-2.75,2.39-7.38,2.39-13.88V11.91h8.03Z" fill="#000" stroke-width="0"/>
  <path d="M146.31,20.15v-8.24h63.56v8.35h-20.06v69.85h-23.54V20.15h-19.96Z" fill="#000" stroke-width="0"/>
  <path d="M215.61,90.11V11.91h23.32v69.96h30.04v8.24h-53.36Z" fill="#000" stroke-width="0"/>
  <path d="M327.33,90.11V11.91h34.06c9.11,0,16.25,1.75,21.42,5.26,5.17,3.51,7.75,8.48,7.75,14.91,0,4.12-1.37,7.88-4.12,11.28-2.75,3.4-7.16,5.86-13.23,7.38,5.35,1.3,9.22,3.18,11.61,5.64,1.3,1.45,2.28,3.15,2.93,5.1.36,1.38.61,2.98.76,4.83.14,1.84.22,4.32.22,7.43,0,4.7.22,8.21.65,10.52.22,1.59.98,3.54,2.28,5.86h-24.4c-.58-1.52-1.01-3.15-1.3-4.88-.29-1.74-.43-3.87-.43-6.4v-2.17l.11-8.13c0-6.36-.72-10.63-2.17-12.8-1.45-2.17-4.19-3.25-8.24-3.25h-4.56v37.64h-23.32ZM350.86,19.18v26.36h4.45c4.34,0,7.5-1.01,9.49-3.04,1.99-2.02,2.98-5.31,2.98-9.87,0-8.96-3.72-13.45-11.17-13.45h-5.75Z" fill="#000" stroke-width="0"/>
  <rect x="299.73" y="8.79" width="31.08" height="17.87" transform="translate(184.24 305.03) rotate(-68.7)" fill="none" stroke-width="0"/>
  <polygon points="298.38 49.2 298.37 49.22 283.18 11.91 258.89 11.91 279.39 61.26 279.39 90.11 302.92 90.11 302.92 61.15 302.95 61.09 298.38 49.2" fill="#000" stroke-width="0"/>
  <polygon points="321.84 26.69 316.22 16.14 304.81 19.7 320.86 4.85 321.84 26.69" fill="#000" stroke-width="0"/>
  <polygon points="321.19 11.91 313.23 11.91 312.72 12.38 299.89 45.33 304.46 57.24 321.29 14.32 321.19 11.91" fill="#000" stroke-width="0"/>
</svg>